<svg id="SvgjsSvg1001" width="288" height="288" xmlns="http://www.w3.org/2000/svg" version="1.1" xmlns:xlink="http://www.w3.org/1999/xlink" xmlns:svgjs="http://svgjs.com/svgjs"><defs id="SvgjsDefs1002"></defs><g id="SvgjsG1008" transform="matrix(0.9167,0,0,0.9167,11.995193225125007,11.995221766853348)"><svg xmlns="http://www.w3.org/2000/svg" enable-background="new 0 0 511.999 511.999" viewBox="0 0 511.999 511.999" width="288" height="288"><path d="M214.685 402.828c-24.829 0-45.029 20.2-45.029 45.029 0 24.829 20.2 45.029 45.029 45.029s45.029-20.2 45.029-45.029C259.713 423.028 239.513 402.828 214.685 402.828zM214.685 467.742c-10.966 0-19.887-8.922-19.887-19.887 0-10.966 8.922-19.887 19.887-19.887s19.887 8.922 19.887 19.887C234.572 458.822 225.65 467.742 214.685 467.742zM372.63 402.828c-24.829 0-45.029 20.2-45.029 45.029 0 24.829 20.2 45.029 45.029 45.029s45.029-20.2 45.029-45.029C417.658 423.028 397.458 402.828 372.63 402.828zM372.63 467.742c-10.966 0-19.887-8.922-19.887-19.887 0-10.966 8.922-19.887 19.887-19.887 10.966 0 19.887 8.922 19.887 19.887C392.517 458.822 383.595 467.742 372.63 467.742zM383.716 165.755H203.567c-6.943 0-12.571 5.628-12.571 12.571 0 6.943 5.629 12.571 12.571 12.571h180.149c6.943 0 12.571-5.628 12.571-12.571C396.287 171.382 390.659 165.755 383.716 165.755zM373.911 231.035H213.373c-6.943 0-12.571 5.628-12.571 12.571s5.628 12.571 12.571 12.571h160.537c6.943 0 12.571-5.628 12.571-12.571C386.481 236.664 380.853 231.035 373.911 231.035z" fill="#ffffff" class="color000 svgShape"></path><path d="M506.341,109.744c-4.794-5.884-11.898-9.258-19.489-9.258H95.278L87.37,62.097c-1.651-8.008-7.113-14.732-14.614-17.989
			l-55.177-23.95c-6.37-2.767-13.773,0.156-16.536,6.524c-2.766,6.37,0.157,13.774,6.524,16.537L62.745,67.17l60.826,295.261
			c2.396,11.628,12.752,20.068,24.625,20.068h301.166c6.943,0,12.571-5.628,12.571-12.571c0-6.943-5.628-12.571-12.571-12.571
			H148.197l-7.399-35.916H451.69c11.872,0,22.229-8.44,24.624-20.068l35.163-170.675
			C513.008,123.266,511.136,115.627,506.341,109.744z M451.69,296.301H135.619l-35.161-170.674l386.393,0.001L451.69,296.301z" fill="#ffffff" class="color000 svgShape"></path></svg></g></svg>